<?xml version="1.0" encoding="UTF-8"?>
<svg id="Calque_1" data-name="Calque 1" xmlns="http://www.w3.org/2000/svg" xmlns:xlink="http://www.w3.org/1999/xlink" viewBox="0 0 800 400">
  <defs>
    <style>
      .cls-1 {
        fill: #7054a8;
      }

      .cls-2 {
        fill: url(#Dégradé_sans_nom_75);
        fill-rule: evenodd;
      }

      .cls-3 {
        fill: #ffcf64;
      }

      .cls-4 {
        fill: url(#Dégradé_sans_nom_37);
      }
    </style>
    <linearGradient id="Dégradé_sans_nom_37" data-name="Dégradé sans nom 37" x1="29.88" y1="123.44" x2="169.15" y2="123.44" gradientUnits="userSpaceOnUse">
      <stop offset=".28" stop-color="#7054a8"/>
      <stop offset=".91" stop-color="#9e77ed"/>
    </linearGradient>
    <linearGradient id="Dégradé_sans_nom_75" data-name="Dégradé sans nom 75" x1="30.63" y1="206.2" x2="168.4" y2="206.2" gradientUnits="userSpaceOnUse">
      <stop offset=".28" stop-color="#7054a8"/>
      <stop offset=".91" stop-color="#9e77ed"/>
    </linearGradient>
  </defs>
  <g>
    <path class="cls-3" d="M49.03,353.16c-2.36,0-4.58-.44-6.64-1.32-2.06-.88-3.87-2.11-5.42-3.69-1.55-1.58-2.76-3.43-3.65-5.54-.88-2.11-1.32-4.39-1.32-6.82s.44-4.64,1.32-6.74c.88-2.1,2.1-3.94,3.65-5.52,1.55-1.58,3.35-2.81,5.42-3.69,2.06-.88,4.28-1.32,6.64-1.32,1.9,0,3.72.31,5.47.92,1.75.62,3.32,1.52,4.72,2.7,1.4,1.18,2.51,2.59,3.35,4.22l-4.14,2.4c-1-1.7-2.31-3.02-3.92-3.97-1.61-.95-3.5-1.42-5.67-1.42-1.63,0-3.15.32-4.54.95-1.4.63-2.62,1.52-3.67,2.65-1.05,1.13-1.87,2.46-2.47,3.97-.6,1.52-.9,3.14-.9,4.87s.29,3.46.87,4.99c.58,1.53,1.4,2.85,2.45,3.97,1.05,1.12,2.28,1.99,3.7,2.62,1.41.63,2.94.95,4.57.95,2.16,0,4.06-.47,5.69-1.42,1.63-.95,2.93-2.25,3.89-3.92l4.14,2.4c-.83,1.63-1.95,3.03-3.35,4.19-1.4,1.17-2.97,2.06-4.72,2.67-1.75.62-3.57.92-5.47.92Z"/>
    <path class="cls-3" d="M78.78,353.16c-2.46,0-4.68-.58-6.64-1.75-1.96-1.16-3.53-2.72-4.69-4.67-1.17-1.95-1.75-4.1-1.75-6.47s.58-4.51,1.75-6.44c1.17-1.93,2.73-3.47,4.69-4.62,1.96-1.15,4.18-1.72,6.64-1.72s4.68.57,6.64,1.72c1.96,1.15,3.51,2.7,4.64,4.64,1.13,1.95,1.7,4.09,1.7,6.42s-.57,4.52-1.7,6.47c-1.13,1.95-2.69,3.5-4.67,4.67-1.98,1.16-4.19,1.75-6.62,1.75ZM78.78,348.47c1.53,0,2.9-.37,4.12-1.1,1.21-.73,2.17-1.72,2.87-2.97.7-1.25,1.05-2.6,1.05-4.07s-.35-2.86-1.05-4.09c-.7-1.23-1.66-2.22-2.87-2.97-1.22-.75-2.59-1.12-4.12-1.12s-2.9.37-4.12,1.12c-1.22.75-2.19,1.74-2.92,2.97-.73,1.23-1.1,2.6-1.1,4.09s.37,2.82,1.1,4.07c.73,1.25,1.71,2.24,2.92,2.97,1.21.73,2.59,1.1,4.12,1.1Z"/>
    <path class="cls-3" d="M127.67,327.39c2.46,0,4.53.55,6.22,1.65,1.68,1.1,2.96,2.58,3.85,4.44.88,1.86,1.32,3.93,1.32,6.19v12.88h-4.94v-12.08c0-1.5-.24-2.88-.72-4.14-.48-1.26-1.23-2.28-2.25-3.05-1.02-.77-2.29-1.15-3.82-1.15s-2.7.37-3.69,1.12c-1,.75-1.75,1.75-2.25,3-.5,1.25-.75,2.62-.75,4.12v12.18h-4.94v-12.18c0-1.5-.24-2.87-.72-4.12-.48-1.25-1.23-2.25-2.25-3-1.02-.75-2.29-1.12-3.82-1.12s-2.79.38-3.77,1.15c-.98.77-1.71,1.78-2.17,3.05-.47,1.27-.7,2.65-.7,4.14v12.08h-4.94v-12.83c0-2.3.42-4.38,1.27-6.24.85-1.86,2.11-3.35,3.8-4.44,1.68-1.1,3.74-1.65,6.17-1.65,2.06,0,3.85.4,5.37,1.2,1.51.8,2.7,1.9,3.55,3.3.85,1.4,1.29,3.01,1.32,4.84h-1.1c.07-1.83.53-3.45,1.37-4.84.85-1.4,2.01-2.5,3.5-3.3,1.48-.8,3.19-1.2,5.12-1.2Z"/>
    <path class="cls-3" d="M176.5,327.39c2.46,0,4.53.55,6.22,1.65,1.68,1.1,2.96,2.58,3.85,4.44.88,1.86,1.32,3.93,1.32,6.19v12.88h-4.94v-12.08c0-1.5-.24-2.88-.72-4.14-.48-1.26-1.23-2.28-2.25-3.05-1.02-.77-2.29-1.15-3.82-1.15s-2.7.37-3.69,1.12c-1,.75-1.75,1.75-2.25,3-.5,1.25-.75,2.62-.75,4.12v12.18h-4.94v-12.18c0-1.5-.24-2.87-.72-4.12-.48-1.25-1.23-2.25-2.25-3-1.02-.75-2.29-1.12-3.82-1.12s-2.79.38-3.77,1.15c-.98.77-1.71,1.78-2.17,3.05-.47,1.27-.7,2.65-.7,4.14v12.08h-4.94v-12.83c0-2.3.42-4.38,1.27-6.24.85-1.86,2.11-3.35,3.8-4.44,1.68-1.1,3.74-1.65,6.17-1.65,2.06,0,3.85.4,5.37,1.2,1.51.8,2.7,1.9,3.55,3.3.85,1.4,1.29,3.01,1.32,4.84h-1.1c.07-1.83.53-3.45,1.37-4.84.85-1.4,2.01-2.5,3.5-3.3,1.48-.8,3.19-1.2,5.12-1.2Z"/>
    <path class="cls-3" d="M206.41,353.11c-2.46,0-4.68-.56-6.64-1.67-1.97-1.11-3.51-2.65-4.64-4.59-1.13-1.95-1.7-4.17-1.7-6.67,0-2.33.52-4.47,1.55-6.42,1.03-1.95,2.48-3.5,4.34-4.64,1.86-1.15,4.03-1.72,6.49-1.72s4.58.54,6.37,1.62c1.78,1.08,3.16,2.55,4.14,4.39.98,1.85,1.47,3.9,1.47,6.17v2h-20.52l.9-2c-.1,1.73.18,3.28.85,4.64.66,1.37,1.63,2.46,2.9,3.27,1.26.82,2.75,1.22,4.44,1.22,1.53,0,2.92-.33,4.17-1,1.25-.67,2.24-1.66,2.97-3l3.8,1.95c-1.07,2.1-2.55,3.69-4.44,4.79-1.9,1.1-4.04,1.65-6.44,1.65ZM198.42,338.38h14.43c-.07-1.3-.41-2.45-1.02-3.45-.62-1-1.45-1.76-2.5-2.3-1.05-.53-2.24-.8-3.57-.8s-2.57.28-3.62.85c-1.05.57-1.88,1.35-2.5,2.35-.62,1-1.02,2.11-1.22,3.35Z"/>
    <path class="cls-3" d="M235.82,332.24c-1.6,0-2.93.4-3.99,1.2-1.06.8-1.86,1.83-2.4,3.1-.53,1.27-.8,2.66-.8,4.19v11.83h-4.94v-12.33c0-2.4.47-4.55,1.4-6.47.93-1.91,2.3-3.44,4.09-4.57,1.8-1.13,4.01-1.7,6.64-1.7s4.95.57,6.77,1.7c1.81,1.13,3.19,2.66,4.14,4.57.95,1.91,1.42,4.05,1.42,6.42v12.38h-4.94v-11.78c0-1.53-.27-2.94-.82-4.22-.55-1.28-1.36-2.32-2.45-3.12-1.08-.8-2.46-1.2-4.12-1.2Z"/>
    <path class="cls-3" d="M271.37,332.39h-19.17v-4.29h19.17v4.29ZM266.38,353.21c-2,0-3.7-.4-5.09-1.2-1.4-.8-2.46-1.91-3.17-3.32-.72-1.41-1.07-3.05-1.07-4.92v-22.02h4.94v21.87c0,1.6.44,2.85,1.32,3.75.88.9,2.05,1.35,3.52,1.35.8,0,1.6-.13,2.42-.4.82-.27,1.52-.62,2.12-1.05v4.54c-.63.4-1.4.73-2.3,1-.9.27-1.8.4-2.7.4Z"/>
    <path class="cls-3" d="M292.94,328.09h4.94v26.51c0,1.9-.37,3.56-1.12,4.99-.75,1.43-1.85,2.56-3.3,3.4-1.45.83-3.24,1.25-5.37,1.25l-.2-4.69c1.63,0,2.88-.48,3.74-1.45.87-.97,1.3-2.18,1.3-3.65v-26.36ZM295.44,323.25c-.57,0-1.1-.14-1.6-.42-.5-.28-.9-.67-1.2-1.17-.3-.5-.45-1.05-.45-1.65s.15-1.15.45-1.65c.3-.5.7-.9,1.2-1.2s1.03-.45,1.6-.45c.6,0,1.14.15,1.62.45.48.3.87.7,1.15,1.2s.42,1.05.42,1.65-.14,1.15-.42,1.65-.67.89-1.15,1.17c-.48.28-1.02.42-1.62.42Z"/>
    <path class="cls-3" d="M316.41,353.11c-2.46,0-4.68-.56-6.64-1.67-1.97-1.11-3.51-2.65-4.64-4.59-1.13-1.95-1.7-4.17-1.7-6.67,0-2.33.52-4.47,1.55-6.42,1.03-1.95,2.48-3.5,4.34-4.64,1.86-1.15,4.03-1.72,6.49-1.72s4.58.54,6.37,1.62c1.78,1.08,3.16,2.55,4.14,4.39.98,1.85,1.47,3.9,1.47,6.17v2h-20.52l.9-2c-.1,1.73.18,3.28.85,4.64.66,1.37,1.63,2.46,2.9,3.27,1.26.82,2.75,1.22,4.44,1.22,1.53,0,2.92-.33,4.17-1,1.25-.67,2.24-1.66,2.97-3l3.8,1.95c-1.07,2.1-2.55,3.69-4.44,4.79-1.9,1.1-4.04,1.65-6.44,1.65ZM308.42,338.38h14.43c-.07-1.3-.41-2.45-1.02-3.45-.62-1-1.45-1.76-2.5-2.3-1.05-.53-2.24-.8-3.57-.8s-2.57.28-3.62.85c-1.05.57-1.88,1.35-2.5,2.35-.62,1-1.02,2.11-1.22,3.35Z"/>
    <path class="cls-3" d="M352.86,363.8h-4.94v-23.52c0-2.43.57-4.61,1.72-6.54,1.15-1.93,2.7-3.45,4.67-4.57,1.96-1.12,4.18-1.67,6.64-1.67s4.68.57,6.64,1.72c1.96,1.15,3.51,2.7,4.64,4.64,1.13,1.95,1.7,4.09,1.7,6.42,0,2.46-.55,4.67-1.65,6.62-1.1,1.95-2.61,3.48-4.52,4.59-1.91,1.12-4.12,1.67-6.62,1.67-1.96,0-3.77-.47-5.42-1.4-1.65-.93-2.96-2.15-3.94-3.67-.98-1.51-1.47-3.17-1.47-4.97l2.55,1.3v19.37ZM360.95,348.52c1.53,0,2.9-.37,4.12-1.12,1.21-.75,2.17-1.75,2.87-3,.7-1.25,1.05-2.6,1.05-4.07s-.35-2.86-1.05-4.09c-.7-1.23-1.66-2.21-2.87-2.95-1.21-.73-2.59-1.1-4.12-1.1s-2.91.37-4.12,1.1c-1.21.73-2.18,1.71-2.9,2.95-.72,1.23-1.07,2.6-1.07,4.09s.36,2.82,1.07,4.07c.71,1.25,1.68,2.25,2.9,3,1.21.75,2.59,1.12,4.12,1.12Z"/>
    <path class="cls-3" d="M390.96,353.11c-2.46,0-4.68-.56-6.64-1.67-1.97-1.11-3.51-2.65-4.64-4.59-1.13-1.95-1.7-4.17-1.7-6.67,0-2.33.52-4.47,1.55-6.42,1.03-1.95,2.48-3.5,4.34-4.64,1.86-1.15,4.03-1.72,6.49-1.72s4.58.54,6.37,1.62c1.78,1.08,3.16,2.55,4.14,4.39.98,1.85,1.47,3.9,1.47,6.17v2h-20.52l.9-2c-.1,1.73.18,3.28.85,4.64.66,1.37,1.63,2.46,2.9,3.27,1.26.82,2.75,1.22,4.44,1.22,1.53,0,2.92-.33,4.17-1,1.25-.67,2.24-1.66,2.97-3l3.8,1.95c-1.07,2.1-2.55,3.69-4.44,4.79-1.9,1.1-4.04,1.65-6.44,1.65ZM382.97,338.38h14.43c-.07-1.3-.41-2.45-1.02-3.45-.62-1-1.45-1.76-2.5-2.3-1.05-.53-2.24-.8-3.57-.8s-2.57.28-3.62.85c-1.05.57-1.88,1.35-2.5,2.35-.62,1-1.02,2.11-1.22,3.35Z"/>
    <path class="cls-3" d="M419.92,348.37c1.53,0,2.82-.39,3.87-1.17,1.05-.78,1.84-1.82,2.37-3.12.53-1.3.8-2.7.8-4.19v-11.78h4.94v12.38c0,2.36-.47,4.5-1.4,6.42-.93,1.91-2.29,3.44-4.07,4.57-1.78,1.13-3.95,1.7-6.52,1.7s-4.68-.57-6.44-1.72c-1.76-1.15-3.11-2.68-4.04-4.59-.93-1.91-1.4-4.05-1.4-6.42v-12.33h4.94v11.83c0,1.47.27,2.85.8,4.14.53,1.3,1.31,2.34,2.35,3.12,1.03.78,2.3,1.17,3.79,1.17Z"/>
    <path class="cls-3" d="M443.74,352.56h-5.59l6.19-9.29c.73-1.1,1.1-2.08,1.1-2.95,0-.8-.33-1.71-1-2.75l-6.29-9.49h5.59l4.99,7.44c.5.77.87,1.56,1.1,2.37.23.82.35,1.64.35,2.47s-.12,1.66-.35,2.47c-.23.82-.6,1.59-1.1,2.32l-4.99,7.39ZM454.77,342.47h-6.89v-4.49h6.89v4.49ZM464.16,352.56h-5.59l-4.99-7.39c-.47-.73-.82-1.51-1.07-2.32-.25-.82-.37-1.64-.37-2.47s.13-1.66.37-2.47c.25-.82.61-1.61,1.07-2.37l4.94-7.44h5.64l-6.29,9.49c-.67,1.03-1,1.95-1,2.75,0,.87.37,1.85,1.1,2.95l6.19,9.29Z"/>
    <path class="cls-3" d="M489.68,349.37l-7.89-21.27h5.29l7.19,19.92c0,.13.06.24.17.32.12.08.24.12.37.12.17,0,.3-.04.4-.12.1-.08.17-.19.2-.32l7.19-19.92h5.24l-7.94,21.27c-.47,1.27-1.13,2.22-2,2.87-.87.65-1.9.97-3.1.97s-2.2-.32-3.1-.97c-.9-.65-1.58-1.61-2.05-2.87Z"/>
    <path class="cls-3" d="M523.08,353.16c-2.46,0-4.68-.58-6.64-1.75-1.96-1.16-3.53-2.72-4.69-4.67-1.17-1.95-1.75-4.1-1.75-6.47s.58-4.51,1.75-6.44c1.17-1.93,2.73-3.47,4.69-4.62,1.96-1.15,4.18-1.72,6.64-1.72s4.68.57,6.64,1.72c1.96,1.15,3.51,2.7,4.64,4.64,1.13,1.95,1.7,4.09,1.7,6.42s-.57,4.52-1.7,6.47-2.69,3.5-4.67,4.67c-1.98,1.16-4.19,1.75-6.62,1.75ZM523.08,348.47c1.53,0,2.9-.37,4.12-1.1,1.21-.73,2.17-1.72,2.87-2.97.7-1.25,1.05-2.6,1.05-4.07s-.35-2.86-1.05-4.09c-.7-1.23-1.66-2.22-2.87-2.97-1.22-.75-2.59-1.12-4.12-1.12s-2.9.37-4.12,1.12c-1.22.75-2.19,1.74-2.92,2.97-.73,1.23-1.1,2.6-1.1,4.09s.37,2.82,1.1,4.07c.73,1.25,1.71,2.24,2.92,2.97,1.21.73,2.59,1.1,4.12,1.1Z"/>
    <path class="cls-3" d="M553.29,348.37c1.53,0,2.82-.39,3.87-1.17,1.05-.78,1.84-1.82,2.37-3.12.53-1.3.8-2.7.8-4.19v-11.78h4.94v12.38c0,2.36-.47,4.5-1.4,6.42-.93,1.91-2.29,3.44-4.07,4.57-1.78,1.13-3.95,1.7-6.52,1.7s-4.68-.57-6.44-1.72c-1.76-1.15-3.11-2.68-4.04-4.59-.93-1.91-1.4-4.05-1.4-6.42v-12.33h4.94v11.83c0,1.47.27,2.85.8,4.14.53,1.3,1.31,2.34,2.35,3.12,1.03.78,2.3,1.17,3.79,1.17Z"/>
    <path class="cls-3" d="M580.95,353.11c-2.26,0-4.25-.45-5.97-1.35-1.72-.9-3.04-2.26-3.97-4.09l3.8-2.1c.63,1.23,1.44,2.1,2.42,2.6.98.5,2.15.75,3.52.75.97,0,1.81-.12,2.55-.37.73-.25,1.31-.62,1.75-1.12.43-.5.65-1.1.65-1.8,0-.87-.34-1.51-1.02-1.95-.68-.43-1.55-.77-2.6-1.02-1.05-.25-2.18-.5-3.4-.75-1.22-.25-2.35-.62-3.4-1.12-1.05-.5-1.91-1.2-2.6-2.1s-1.02-2.11-1.02-3.65c0-1.43.39-2.7,1.17-3.82.78-1.11,1.86-2,3.25-2.65,1.38-.65,2.95-.97,4.72-.97,1.53,0,2.89.22,4.07.65,1.18.43,2.2,1.02,3.05,1.77.85.75,1.54,1.59,2.07,2.52l-3.8,2.15c-.53-1.06-1.27-1.81-2.2-2.25-.93-.43-1.96-.65-3.1-.65-.77,0-1.47.12-2.12.37-.65.25-1.17.61-1.57,1.07-.4.47-.6,1.03-.6,1.7,0,.8.34,1.42,1.02,1.85.68.43,1.55.78,2.6,1.05,1.05.27,2.18.53,3.4.8,1.21.27,2.35.64,3.4,1.12,1.05.48,1.91,1.17,2.6,2.07s1.02,2.13,1.02,3.69-.44,2.87-1.32,4.02c-.88,1.15-2.06,2.03-3.54,2.65-1.48.62-3.09.92-4.82.92Z"/>
    <path class="cls-3" d="M621.55,353.16c-2.36,0-4.47-.58-6.32-1.75-1.85-1.16-3.3-2.72-4.37-4.67-1.06-1.95-1.6-4.1-1.6-6.47s.57-4.47,1.72-6.42c1.15-1.95,2.7-3.5,4.67-4.64,1.96-1.15,4.18-1.72,6.64-1.72s4.68.56,6.64,1.67c1.96,1.12,3.52,2.64,4.67,4.57,1.15,1.93,1.72,4.11,1.72,6.54v12.28h-4.69v-9.14l1.7-1.3c0,2.06-.46,3.93-1.37,5.59-.92,1.66-2.18,2.99-3.8,3.97-1.61.98-3.49,1.47-5.62,1.47ZM622.29,348.47c1.53,0,2.91-.37,4.14-1.1,1.23-.73,2.2-1.72,2.9-2.97.7-1.25,1.05-2.6,1.05-4.07s-.35-2.86-1.05-4.09c-.7-1.23-1.66-2.22-2.9-2.97-1.23-.75-2.61-1.12-4.14-1.12s-2.91.37-4.12,1.12c-1.21.75-2.18,1.74-2.9,2.97-.72,1.23-1.07,2.6-1.07,4.09s.36,2.82,1.07,4.07c.71,1.25,1.68,2.24,2.9,2.97,1.21.73,2.59,1.1,4.12,1.1Z"/>
    <path class="cls-3" d="M645.86,323.25c-.57,0-1.1-.14-1.6-.42-.5-.28-.9-.67-1.2-1.17s-.45-1.05-.45-1.65.15-1.15.45-1.65.7-.9,1.2-1.2,1.03-.45,1.6-.45c.6,0,1.14.15,1.62.45.48.3.86.7,1.15,1.2.28.5.42,1.05.42,1.65s-.14,1.15-.42,1.65c-.28.5-.67.89-1.15,1.17-.48.28-1.02.42-1.62.42ZM643.42,328.09h4.94v24.47h-4.94v-24.47Z"/>
    <path class="cls-3" d="M667.88,353.16c-2.46,0-4.68-.58-6.64-1.75-1.96-1.16-3.52-2.71-4.67-4.64-1.15-1.93-1.72-4.06-1.72-6.39,0-2.5.55-4.71,1.65-6.64,1.1-1.93,2.61-3.45,4.54-4.57,1.93-1.12,4.13-1.67,6.59-1.67,1.96,0,3.77.46,5.42,1.37,1.65.92,2.97,2.14,3.97,3.67,1,1.53,1.5,3.2,1.5,4.99l-2.6-1.3.05-19.37h4.94v23.52c0,2.4-.57,4.57-1.72,6.52-1.15,1.95-2.7,3.48-4.67,4.59-1.97,1.12-4.18,1.67-6.64,1.67ZM667.88,348.52c1.53,0,2.91-.37,4.14-1.12,1.23-.75,2.2-1.74,2.9-2.97.7-1.23,1.05-2.6,1.05-4.09s-.35-2.82-1.05-4.07c-.7-1.25-1.66-2.24-2.9-2.97-1.23-.73-2.61-1.1-4.14-1.1s-2.91.37-4.12,1.1c-1.21.73-2.18,1.72-2.9,2.97-.72,1.25-1.07,2.61-1.07,4.07s.36,2.86,1.07,4.09c.71,1.23,1.68,2.22,2.9,2.97,1.21.75,2.59,1.12,4.12,1.12Z"/>
    <path class="cls-3" d="M699.44,353.11c-2.46,0-4.68-.56-6.64-1.67-1.97-1.11-3.51-2.65-4.64-4.59-1.13-1.95-1.7-4.17-1.7-6.67,0-2.33.52-4.47,1.55-6.42,1.03-1.95,2.48-3.5,4.34-4.64,1.86-1.15,4.03-1.72,6.49-1.72s4.58.54,6.37,1.62c1.78,1.08,3.16,2.55,4.14,4.39.98,1.85,1.47,3.9,1.47,6.17v2h-20.52l.9-2c-.1,1.73.18,3.28.85,4.64.66,1.37,1.63,2.46,2.9,3.27,1.26.82,2.75,1.22,4.44,1.22,1.53,0,2.92-.33,4.17-1,1.25-.67,2.24-1.66,2.97-3l3.8,1.95c-1.07,2.1-2.55,3.69-4.44,4.79-1.9,1.1-4.04,1.65-6.44,1.65ZM691.45,338.38h14.43c-.07-1.3-.41-2.45-1.02-3.45-.62-1-1.45-1.76-2.5-2.3-1.05-.53-2.24-.8-3.57-.8s-2.57.28-3.62.85c-1.05.57-1.88,1.35-2.5,2.35-.62,1-1.02,2.11-1.22,3.35Z"/>
    <path class="cls-3" d="M721.66,352.56h-4.94v-14.58c0-2,.37-3.78,1.12-5.34.75-1.56,1.85-2.8,3.3-3.69,1.45-.9,3.24-1.35,5.37-1.35.8,0,1.57.07,2.32.22.75.15,1.44.37,2.07.67v4.89c-.6-.37-1.24-.63-1.92-.8-.68-.17-1.36-.25-2.02-.25-1.63,0-2.92.52-3.87,1.57-.95,1.05-1.42,2.47-1.42,4.27v14.38Z"/>
    <path class="cls-3" d="M759.86,341.13h-5.49c0-1.23.29-2.27.87-3.12.58-.85,1.31-1.61,2.17-2.27.87-.67,1.74-1.31,2.62-1.95.88-.63,1.61-1.35,2.2-2.15.58-.8.87-1.75.87-2.85,0-1-.26-1.87-.77-2.62-.52-.75-1.21-1.33-2.1-1.75-.88-.42-1.86-.62-2.92-.62-1.67,0-3.13.44-4.39,1.32-1.26.88-2.26,2.09-3,3.62l-4.24-2.45c.63-1.46,1.5-2.77,2.6-3.92,1.1-1.15,2.42-2.06,3.97-2.75,1.55-.68,3.29-1.02,5.22-1.02,2.13,0,4.02.42,5.67,1.25,1.65.83,2.95,1.99,3.89,3.47.95,1.48,1.42,3.17,1.42,5.07,0,1.6-.29,2.95-.87,4.04-.58,1.1-1.29,2.03-2.12,2.8-.83.77-1.68,1.47-2.55,2.1-.87.63-1.59,1.24-2.17,1.82-.58.58-.87,1.24-.87,1.97ZM757.01,353.06c-.87,0-1.61-.3-2.22-.9-.62-.6-.92-1.35-.92-2.25,0-.83.31-1.55.92-2.15.62-.6,1.36-.9,2.22-.9s1.56.3,2.17.9c.62.6.92,1.32.92,2.15,0,.9-.31,1.65-.92,2.25-.62.6-1.34.9-2.17.9Z"/>
  </g>
  <g>
    <g>
      <path class="cls-1" d="M290.13,264.87v-27.89c14.08,0,24.51-3.57,31.27-10.7,6.76-7.13,10.14-16.99,10.14-29.58v-121.97h28.73v120c0,21.97-5.87,39.15-17.61,51.55-11.74,12.39-29.25,18.59-52.53,18.59Z"/>
      <path class="cls-1" d="M470.13,266.84c-13.9,0-26.39-3.29-37.46-9.86-11.08-6.57-19.91-15.35-26.48-26.34-6.58-10.99-9.86-23.14-9.86-36.48s3.28-25.44,9.86-36.34c6.57-10.89,15.4-19.58,26.48-26.06,11.08-6.48,23.56-9.72,37.46-9.72s26.38,3.24,37.46,9.72c11.08,6.48,19.81,15.21,26.2,26.2,6.38,10.99,9.58,23.05,9.58,36.2s-3.2,25.49-9.58,36.48c-6.39,10.99-15.17,19.77-26.34,26.34-11.17,6.57-23.62,9.86-37.32,9.86ZM470.13,240.36c8.64,0,16.38-2.06,23.24-6.2,6.85-4.13,12.25-9.72,16.2-16.76,3.94-7.04,5.92-14.69,5.92-22.96s-1.97-16.15-5.92-23.1c-3.94-6.95-9.34-12.53-16.2-16.76-6.86-4.23-14.6-6.34-23.24-6.34s-16.39,2.11-23.24,6.34c-6.86,4.23-12.35,9.82-16.48,16.76-4.13,6.95-6.2,14.65-6.2,23.1s2.06,15.92,6.2,22.96c4.13,7.04,9.62,12.63,16.48,16.76,6.85,4.13,14.6,6.2,23.24,6.2Z"/>
      <path class="cls-1" d="M639.13,266.56c-13.9,0-26.39-3.14-37.46-9.44-11.08-6.29-19.81-14.93-26.2-25.92-6.39-10.99-9.58-23.52-9.58-37.61,0-13.14,2.91-25.21,8.73-36.2,5.82-10.99,13.99-19.72,24.51-26.2,10.51-6.48,22.72-9.72,36.62-9.72s25.87,3.05,35.92,9.15c10.04,6.1,17.84,14.37,23.38,24.79,5.54,10.42,8.31,22.02,8.31,34.79v11.27h-115.77l5.07-11.27c-.56,9.77,1.03,18.5,4.79,26.2,3.75,7.7,9.2,13.85,16.34,18.45,7.13,4.6,15.49,6.9,25.07,6.9,8.63,0,16.48-1.87,23.52-5.63,7.04-3.75,12.63-9.39,16.76-16.9l21.41,10.99c-6.01,11.83-14.37,20.84-25.07,27.04-10.7,6.2-22.82,9.3-36.34,9.3ZM604.77,96.98c-4.7,0-8.73-1.69-12.11-5.07-3.38-3.38-5.07-7.42-5.07-12.11s1.69-8.97,5.07-12.25c3.38-3.28,7.42-4.93,12.11-4.93s8.63,1.65,11.83,4.93c3.19,3.29,4.79,7.37,4.79,12.25s-1.6,8.73-4.79,12.11c-3.2,3.38-7.14,5.07-11.83,5.07ZM594.06,183.46h81.41c-.38-7.32-2.3-13.8-5.77-19.44-3.48-5.63-8.17-9.95-14.08-12.96-5.92-3-12.63-4.51-20.14-4.51s-14.51,1.6-20.42,4.79c-5.92,3.2-10.61,7.61-14.08,13.24-3.48,5.63-5.77,11.93-6.9,18.87ZM666.46,96.98c-4.51,0-8.45-1.69-11.83-5.07-3.38-3.38-5.07-7.42-5.07-12.11s1.69-8.97,5.07-12.25c3.38-3.28,7.32-4.93,11.83-4.93s8.68,1.65,11.97,4.93c3.28,3.29,4.93,7.37,4.93,12.25s-1.65,8.73-4.93,12.11c-3.29,3.38-7.28,5.07-11.97,5.07Z"/>
      <path class="cls-1" d="M742.23,62.05h27.89v204.5h-27.89V62.05Z"/>
    </g>
    <g>
      <path class="cls-4" d="M62.07,211.13h-7.24c-13.76,0-24.95-11.19-24.95-24.95v-57.16c0-51.43,41.84-93.26,93.26-93.26h17.46c15.74,0,28.54,12.8,28.54,28.54s-12.82,28.59-28.59,28.59h-22.99c-16.56,0-30.55,13.99-30.55,30.55v62.74c0,13.76-11.19,24.95-24.95,24.95ZM123.15,37.24c-50.6,0-91.77,41.17-91.77,91.77v57.16c0,12.93,10.52,23.46,23.46,23.46h7.24c12.93,0,23.46-10.52,23.46-23.46v-62.74c0-8.47,3.36-16.49,9.45-22.59,6.1-6.1,14.12-9.45,22.59-9.45h22.99c14.94,0,27.1-12.16,27.1-27.1s-12.14-27.05-27.05-27.05h-17.46Z"/>
      <g>
        <path class="cls-2" d="M112.76,206.2v-24.06s0-7.24,0-7.24v-31.44c0-13.37,10.84-24.2,24.2-24.2h7.24c13.37,0,24.2,10.84,24.2,24.2v57.16c0,50.89-41.63,92.52-92.52,92.52h-39.68c-3.08,0-5.58-2.5-5.58-5.58v-22.22c0-15.38,12.47-27.84,27.84-27.84h22.99c17.1,0,31.3-14.19,31.3-31.3"/>
        <circle class="cls-3" cx="140.58" cy="64.32" r="17.94"/>
      </g>
    </g>
  </g>
</svg>